{
    "asset" : {
        "generator" : "Khronos glTF Blender I/O v1.6.16",
        "version" : "2.0"
    },
    "scene" : 0,
    "scenes" : [
        {
            "name" : "Scene",
            "nodes" : [
                0
            ]
        }
    ],
    "nodes" : [
        {
            "mesh" : 0,
            "name" : "Key",
            "scale" : [
                1.1263357400894165,
                0.08749999850988388,
                1.1263357400894165
            ]
        }
    ],
    "materials" : [
        {
            "doubleSided" : true,
            "name" : "key-material",
            "pbrMetallicRoughness" : {
                "baseColorFactor" : [
                    0.800000011920929,
                    0.800000011920929,
                    0.800000011920929,
                    1
                ],
                "roughnessFactor" : 0.09318181127309799
            }
        }
    ],
    "meshes" : [
        {
            "name" : "Cylinder",
            "primitives" : [
                {
                    "attributes" : {
                        "POSITION" : 0,
                        "NORMAL" : 1,
                        "TEXCOORD_0" : 2
                    },
                    "indices" : 3,
                    "material" : 0
                }
            ]
        }
    ],
    "accessors" : [
        {
            "bufferView" : 0,
            "componentType" : 5126,
            "count" : 2839,
            "max" : [
                0.9945645332336426,
                0.9999998211860657,
                0.9945644736289978
            ],
            "min" : [
                -3.480626344680786,
                -0.9999998211860657,
                -0.9945645332336426
            ],
            "type" : "VEC3"
        },
        {
            "bufferView" : 1,
            "componentType" : 5126,
            "count" : 2839,
            "type" : "VEC3"
        },
        {
            "bufferView" : 2,
            "componentType" : 5126,
            "count" : 2839,
            "type" : "VEC2"
        },
        {
            "bufferView" : 3,
            "componentType" : 5123,
            "count" : 7404,
            "type" : "SCALAR"
        }
    ],
    "bufferViews" : [
        {
            "buffer" : 0,
            "byteLength" : 34068,
            "byteOffset" : 0
        },
        {
            "buffer" : 0,
            "byteLength" : 34068,
            "byteOffset" : 34068
        },
        {
            "buffer" : 0,
            "byteLength" : 22712,
            "byteOffset" : 68136
        },
        {
            "buffer" : 0,
            "byteLength" : 14808,
            "byteOffset" : 90848
        }
    ],
    "buffers" : [
        {
            "byteLength" : 105656,
            "uri" : "data:application/octet-stream;base64,"
        }
    ]
}
