{
    "asset" : {
        "generator" : "Khronos glTF Blender I/O v1.6.16",
        "version" : "2.0"
    },
    "scene" : 0,
    "scenes" : [
        {
            "name" : "Scene",
            "nodes" : [
                0,
                1
            ]
        }
    ],
    "nodes" : [
        {
            "mesh" : 0,
            "name" : "blade",
            "scale" : [
                1.8156192302703857,
                0.10849999636411667,
                0.5701361894607544
            ],
            "translation" : [
                -0.8821786642074585,
                0,
                0.12407946586608887
            ]
        },
        {
            "mesh" : 1,
            "name" : "bow",
            "scale" : [
                1.0834144353866577,
                -0.10834147036075592,
                1.0834144353866577
            ],
            "translation" : [
                1.2230690717697144,
                0,
                0
            ]
        }
    ],
    "materials" : [
        {
            "doubleSided" : true,
            "name" : "key-silver",
            "pbrMetallicRoughness" : {
                "roughnessFactor" : 0.4954545497894287
            }
        }
    ],
    "meshes" : [
        {
            "name" : "Cube.001",
            "primitives" : [
                {
                    "attributes" : {
                        "POSITION" : 0,
                        "NORMAL" : 1,
                        "TEXCOORD_0" : 2
                    },
                    "indices" : 3,
                    "material" : 0
                }
            ]
        },
        {
            "name" : "Cylinder",
            "primitives" : [
                {
                    "attributes" : {
                        "POSITION" : 4,
                        "NORMAL" : 5,
                        "TEXCOORD_0" : 6
                    },
                    "indices" : 7,
                    "material" : 0
                }
            ]
        }
    ],
    "accessors" : [
        {
            "bufferView" : 0,
            "componentType" : 5126,
            "count" : 1700,
            "max" : [
                1,
                1.0000001192092896,
                1.0000001192092896
            ],
            "min" : [
                -1,
                -1.0000001192092896,
                -1.0000001192092896
            ],
            "type" : "VEC3"
        },
        {
            "bufferView" : 1,
            "componentType" : 5126,
            "count" : 1700,
            "type" : "VEC3"
        },
        {
            "bufferView" : 2,
            "componentType" : 5126,
            "count" : 1700,
            "type" : "VEC2"
        },
        {
            "bufferView" : 3,
            "componentType" : 5123,
            "count" : 5880,
            "type" : "SCALAR"
        },
        {
            "bufferView" : 4,
            "componentType" : 5126,
            "count" : 452,
            "max" : [
                0.9999998807907104,
                1,
                0.9999998807907104
            ],
            "min" : [
                -0.9999998807907104,
                -1,
                -0.9999998807907104
            ],
            "type" : "VEC3"
        },
        {
            "bufferView" : 5,
            "componentType" : 5126,
            "count" : 452,
            "type" : "VEC3"
        },
        {
            "bufferView" : 6,
            "componentType" : 5126,
            "count" : 452,
            "type" : "VEC2"
        },
        {
            "bufferView" : 7,
            "componentType" : 5123,
            "count" : 1536,
            "type" : "SCALAR"
        }
    ],
    "bufferViews" : [
        {
            "buffer" : 0,
            "byteLength" : 20400,
            "byteOffset" : 0
        },
        {
            "buffer" : 0,
            "byteLength" : 20400,
            "byteOffset" : 20400
        },
        {
            "buffer" : 0,
            "byteLength" : 13600,
            "byteOffset" : 40800
        },
        {
            "buffer" : 0,
            "byteLength" : 11760,
            "byteOffset" : 54400
        },
        {
            "buffer" : 0,
            "byteLength" : 5424,
            "byteOffset" : 66160
        },
        {
            "buffer" : 0,
            "byteLength" : 5424,
            "byteOffset" : 71584
        },
        {
            "buffer" : 0,
            "byteLength" : 3616,
            "byteOffset" : 77008
        },
        {
            "buffer" : 0,
            "byteLength" : 3072,
            "byteOffset" : 80624
        }
    ],
    "buffers" : [
        {
            "byteLength" : 83696,
            "uri" : "data:application/octet-stream;base64,"
        }
    ]
}
